<mxfile host="app.diagrams.net" agent="Mozilla/5.0 (Windows NT 10.0; Win64; x64) AppleWebKit/537.36 (KHTML, like Gecko) Chrome/136.0.0.0 Safari/537.36" version="27.0.4">
  <diagram name="Page-1" id="4hy2VgaBOKZdhCo9qNHO">
    <mxGraphModel dx="1656" dy="2330" grid="1" gridSize="10" guides="1" tooltips="1" connect="1" arrows="1" fold="1" page="1" pageScale="1" pageWidth="850" pageHeight="1100" math="0" shadow="0">
      <root>
        <mxCell id="0" />
        <mxCell id="1" parent="0" />
        <mxCell id="N3tVkwFhNo7vR2RabhJe-11" value="" style="rounded=0;whiteSpace=wrap;html=1;fillColor=#F2FDFF;" parent="1" vertex="1">
          <mxGeometry x="260" y="-60" width="320" height="1380" as="geometry" />
        </mxCell>
        <mxCell id="N3tVkwFhNo7vR2RabhJe-84" value="" style="rounded=0;whiteSpace=wrap;html=1;" parent="1" vertex="1">
          <mxGeometry x="1115" y="170" width="320" height="190" as="geometry" />
        </mxCell>
        <mxCell id="N3tVkwFhNo7vR2RabhJe-38" value="" style="rounded=0;whiteSpace=wrap;html=1;fillColor=#F0EFFF;" parent="1" vertex="1">
          <mxGeometry x="689.91" y="410" width="320" height="910" as="geometry" />
        </mxCell>
        <mxCell id="N3tVkwFhNo7vR2RabhJe-14" value="" style="rounded=0;whiteSpace=wrap;html=1;fillColor=#FEFFED;" parent="1" vertex="1">
          <mxGeometry x="689.91" y="-60" width="320" height="420" as="geometry" />
        </mxCell>
        <mxCell id="N3tVkwFhNo7vR2RabhJe-1" value="Ledger" style="rounded=0;whiteSpace=wrap;html=1;" parent="1" vertex="1">
          <mxGeometry x="360" y="40" width="120" height="60" as="geometry" />
        </mxCell>
        <mxCell id="N3tVkwFhNo7vR2RabhJe-15" style="edgeStyle=orthogonalEdgeStyle;rounded=0;orthogonalLoop=1;jettySize=auto;html=1;exitX=0.5;exitY=0;exitDx=0;exitDy=0;entryX=0.5;entryY=1;entryDx=0;entryDy=0;" parent="1" source="N3tVkwFhNo7vR2RabhJe-2" target="N3tVkwFhNo7vR2RabhJe-1" edge="1">
          <mxGeometry relative="1" as="geometry" />
        </mxCell>
        <mxCell id="N3tVkwFhNo7vR2RabhJe-2" value="Vision" style="rounded=0;whiteSpace=wrap;html=1;" parent="1" vertex="1">
          <mxGeometry x="360" y="200" width="120" height="60" as="geometry" />
        </mxCell>
        <mxCell id="N3tVkwFhNo7vR2RabhJe-3" value="Stablecoin" style="rounded=0;whiteSpace=wrap;html=1;" parent="1" vertex="1">
          <mxGeometry x="360" y="360" width="120" height="60" as="geometry" />
        </mxCell>
        <mxCell id="N3tVkwFhNo7vR2RabhJe-19" style="edgeStyle=orthogonalEdgeStyle;rounded=0;orthogonalLoop=1;jettySize=auto;html=1;exitX=1;exitY=0.5;exitDx=0;exitDy=0;entryX=1;entryY=1;entryDx=0;entryDy=0;" parent="1" source="N3tVkwFhNo7vR2RabhJe-4" target="N3tVkwFhNo7vR2RabhJe-1" edge="1">
          <mxGeometry relative="1" as="geometry">
            <Array as="points">
              <mxPoint x="500" y="540" />
              <mxPoint x="500" y="100" />
            </Array>
          </mxGeometry>
        </mxCell>
        <mxCell id="N3tVkwFhNo7vR2RabhJe-23" style="edgeStyle=orthogonalEdgeStyle;rounded=0;orthogonalLoop=1;jettySize=auto;html=1;exitX=0.5;exitY=0;exitDx=0;exitDy=0;entryX=0.5;entryY=1;entryDx=0;entryDy=0;" parent="1" source="N3tVkwFhNo7vR2RabhJe-4" target="N3tVkwFhNo7vR2RabhJe-3" edge="1">
          <mxGeometry relative="1" as="geometry" />
        </mxCell>
        <mxCell id="N3tVkwFhNo7vR2RabhJe-4" value="StablecoinJoin" style="rounded=0;whiteSpace=wrap;html=1;" parent="1" vertex="1">
          <mxGeometry x="360" y="510" width="120" height="60" as="geometry" />
        </mxCell>
        <mxCell id="N3tVkwFhNo7vR2RabhJe-20" style="edgeStyle=orthogonalEdgeStyle;rounded=0;orthogonalLoop=1;jettySize=auto;html=1;exitX=1;exitY=0.5;exitDx=0;exitDy=0;entryX=1;entryY=0.5;entryDx=0;entryDy=0;" parent="1" source="N3tVkwFhNo7vR2RabhJe-5" target="N3tVkwFhNo7vR2RabhJe-1" edge="1">
          <mxGeometry relative="1" as="geometry">
            <mxPoint x="600" y="90" as="targetPoint" />
            <Array as="points">
              <mxPoint x="520" y="1030" />
              <mxPoint x="520" y="70" />
            </Array>
          </mxGeometry>
        </mxCell>
        <mxCell id="N3tVkwFhNo7vR2RabhJe-91" style="edgeStyle=orthogonalEdgeStyle;rounded=0;orthogonalLoop=1;jettySize=auto;html=1;exitX=0;exitY=0.75;exitDx=0;exitDy=0;entryX=0;entryY=0.5;entryDx=0;entryDy=0;" parent="1" source="N3tVkwFhNo7vR2RabhJe-5" target="N3tVkwFhNo7vR2RabhJe-74" edge="1">
          <mxGeometry relative="1" as="geometry">
            <Array as="points">
              <mxPoint x="240" y="1045" />
              <mxPoint x="240" y="-130" />
            </Array>
          </mxGeometry>
        </mxCell>
        <mxCell id="N3tVkwFhNo7vR2RabhJe-5" value="Fee" style="rounded=0;whiteSpace=wrap;html=1;" parent="1" vertex="1">
          <mxGeometry x="360" y="1000" width="120" height="60" as="geometry" />
        </mxCell>
        <mxCell id="N3tVkwFhNo7vR2RabhJe-36" style="edgeStyle=orthogonalEdgeStyle;rounded=0;orthogonalLoop=1;jettySize=auto;html=1;exitX=0.5;exitY=0;exitDx=0;exitDy=0;entryX=0.5;entryY=1;entryDx=0;entryDy=0;" parent="1" source="N3tVkwFhNo7vR2RabhJe-6" target="N3tVkwFhNo7vR2RabhJe-4" edge="1">
          <mxGeometry relative="1" as="geometry" />
        </mxCell>
        <mxCell id="N3tVkwFhNo7vR2RabhJe-6" value="Settlement" style="rounded=0;whiteSpace=wrap;html=1;" parent="1" vertex="1">
          <mxGeometry x="360" y="680" width="120" height="60" as="geometry" />
        </mxCell>
        <mxCell id="N3tVkwFhNo7vR2RabhJe-18" style="edgeStyle=orthogonalEdgeStyle;rounded=0;orthogonalLoop=1;jettySize=auto;html=1;exitX=1;exitY=0.25;exitDx=0;exitDy=0;entryX=1;entryY=0.75;entryDx=0;entryDy=0;" parent="1" source="N3tVkwFhNo7vR2RabhJe-7" target="N3tVkwFhNo7vR2RabhJe-1" edge="1">
          <mxGeometry relative="1" as="geometry">
            <Array as="points">
              <mxPoint x="510" y="855" />
              <mxPoint x="510" y="85" />
            </Array>
          </mxGeometry>
        </mxCell>
        <mxCell id="N3tVkwFhNo7vR2RabhJe-30" style="edgeStyle=orthogonalEdgeStyle;rounded=0;orthogonalLoop=1;jettySize=auto;html=1;exitX=0.5;exitY=0;exitDx=0;exitDy=0;entryX=0.5;entryY=1;entryDx=0;entryDy=0;" parent="1" source="N3tVkwFhNo7vR2RabhJe-7" target="N3tVkwFhNo7vR2RabhJe-6" edge="1">
          <mxGeometry relative="1" as="geometry" />
        </mxCell>
        <mxCell id="N3tVkwFhNo7vR2RabhJe-54" style="edgeStyle=orthogonalEdgeStyle;rounded=0;orthogonalLoop=1;jettySize=auto;html=1;exitX=1;exitY=0.75;exitDx=0;exitDy=0;entryX=0;entryY=0.75;entryDx=0;entryDy=0;" parent="1" source="N3tVkwFhNo7vR2RabhJe-7" target="N3tVkwFhNo7vR2RabhJe-45" edge="1">
          <mxGeometry relative="1" as="geometry">
            <Array as="points">
              <mxPoint x="620" y="885" />
              <mxPoint x="620" y="725" />
            </Array>
          </mxGeometry>
        </mxCell>
        <mxCell id="N3tVkwFhNo7vR2RabhJe-7" value="Liquidator" style="rounded=0;whiteSpace=wrap;html=1;" parent="1" vertex="1">
          <mxGeometry x="360" y="840" width="120" height="60" as="geometry" />
        </mxCell>
        <mxCell id="N3tVkwFhNo7vR2RabhJe-8" value="Decay" style="rounded=0;whiteSpace=wrap;html=1;" parent="1" vertex="1">
          <mxGeometry x="360" y="1160" width="120" height="60" as="geometry" />
        </mxCell>
        <mxCell id="N3tVkwFhNo7vR2RabhJe-9" value="AuctionProxy" style="rounded=0;whiteSpace=wrap;html=1;" parent="1" vertex="1">
          <mxGeometry x="789.91" y="200" width="120" height="60" as="geometry" />
        </mxCell>
        <mxCell id="N3tVkwFhNo7vR2RabhJe-26" style="edgeStyle=orthogonalEdgeStyle;rounded=0;orthogonalLoop=1;jettySize=auto;html=1;exitX=0.5;exitY=0;exitDx=0;exitDy=0;entryX=0;entryY=0.5;entryDx=0;entryDy=0;" parent="1" source="N3tVkwFhNo7vR2RabhJe-21" target="N3tVkwFhNo7vR2RabhJe-4" edge="1">
          <mxGeometry relative="1" as="geometry">
            <Array as="points">
              <mxPoint x="850" />
              <mxPoint x="330" />
              <mxPoint x="330" y="540" />
            </Array>
          </mxGeometry>
        </mxCell>
        <mxCell id="N3tVkwFhNo7vR2RabhJe-27" style="edgeStyle=orthogonalEdgeStyle;rounded=0;orthogonalLoop=1;jettySize=auto;html=1;exitX=0;exitY=0;exitDx=0;exitDy=0;entryX=0.5;entryY=0;entryDx=0;entryDy=0;" parent="1" source="N3tVkwFhNo7vR2RabhJe-21" target="N3tVkwFhNo7vR2RabhJe-1" edge="1">
          <mxGeometry relative="1" as="geometry">
            <Array as="points">
              <mxPoint x="790" y="20" />
              <mxPoint x="420" y="20" />
            </Array>
          </mxGeometry>
        </mxCell>
        <mxCell id="N3tVkwFhNo7vR2RabhJe-29" style="edgeStyle=orthogonalEdgeStyle;rounded=0;orthogonalLoop=1;jettySize=auto;html=1;exitX=0.75;exitY=0;exitDx=0;exitDy=0;entryX=0;entryY=0.5;entryDx=0;entryDy=0;" parent="1" source="N3tVkwFhNo7vR2RabhJe-21" target="N3tVkwFhNo7vR2RabhJe-7" edge="1">
          <mxGeometry relative="1" as="geometry">
            <Array as="points">
              <mxPoint x="880" y="-10" />
              <mxPoint x="320" y="-10" />
              <mxPoint x="320" y="870" />
            </Array>
          </mxGeometry>
        </mxCell>
        <mxCell id="N3tVkwFhNo7vR2RabhJe-31" style="edgeStyle=orthogonalEdgeStyle;rounded=0;orthogonalLoop=1;jettySize=auto;html=1;exitX=1;exitY=0;exitDx=0;exitDy=0;entryX=0;entryY=0.5;entryDx=0;entryDy=0;" parent="1" source="N3tVkwFhNo7vR2RabhJe-21" target="N3tVkwFhNo7vR2RabhJe-5" edge="1">
          <mxGeometry relative="1" as="geometry">
            <Array as="points">
              <mxPoint x="910" y="-20" />
              <mxPoint x="310" y="-20" />
              <mxPoint x="310" y="1030" />
            </Array>
          </mxGeometry>
        </mxCell>
        <mxCell id="N3tVkwFhNo7vR2RabhJe-52" style="edgeStyle=orthogonalEdgeStyle;rounded=0;orthogonalLoop=1;jettySize=auto;html=1;exitX=0;exitY=0.5;exitDx=0;exitDy=0;entryX=0;entryY=0.25;entryDx=0;entryDy=0;" parent="1" source="N3tVkwFhNo7vR2RabhJe-21" target="N3tVkwFhNo7vR2RabhJe-44" edge="1">
          <mxGeometry relative="1" as="geometry">
            <Array as="points">
              <mxPoint x="670" y="70" />
              <mxPoint x="670" y="525" />
            </Array>
          </mxGeometry>
        </mxCell>
        <mxCell id="N3tVkwFhNo7vR2RabhJe-55" style="edgeStyle=orthogonalEdgeStyle;rounded=0;orthogonalLoop=1;jettySize=auto;html=1;exitX=1;exitY=0.5;exitDx=0;exitDy=0;entryX=1;entryY=0.5;entryDx=0;entryDy=0;" parent="1" source="N3tVkwFhNo7vR2RabhJe-21" target="N3tVkwFhNo7vR2RabhJe-45" edge="1">
          <mxGeometry relative="1" as="geometry">
            <Array as="points">
              <mxPoint x="1040" y="70" />
              <mxPoint x="1040" y="710" />
            </Array>
          </mxGeometry>
        </mxCell>
        <mxCell id="N3tVkwFhNo7vR2RabhJe-56" style="edgeStyle=orthogonalEdgeStyle;rounded=0;orthogonalLoop=1;jettySize=auto;html=1;exitX=0.25;exitY=0;exitDx=0;exitDy=0;entryX=0;entryY=0.5;entryDx=0;entryDy=0;" parent="1" source="N3tVkwFhNo7vR2RabhJe-21" target="N3tVkwFhNo7vR2RabhJe-2" edge="1">
          <mxGeometry relative="1" as="geometry">
            <Array as="points">
              <mxPoint x="820" y="10" />
              <mxPoint x="340" y="10" />
              <mxPoint x="340" y="230" />
            </Array>
          </mxGeometry>
        </mxCell>
        <mxCell id="N3tVkwFhNo7vR2RabhJe-79" style="edgeStyle=orthogonalEdgeStyle;rounded=0;orthogonalLoop=1;jettySize=auto;html=1;entryX=0.5;entryY=0;entryDx=0;entryDy=0;" parent="1" target="N3tVkwFhNo7vR2RabhJe-9" edge="1">
          <mxGeometry relative="1" as="geometry">
            <mxPoint x="850" y="160" as="sourcePoint" />
          </mxGeometry>
        </mxCell>
        <mxCell id="N3tVkwFhNo7vR2RabhJe-21" value="Interaction" style="rounded=0;whiteSpace=wrap;html=1;" parent="1" vertex="1">
          <mxGeometry x="789.91" y="40" width="120" height="60" as="geometry" />
        </mxCell>
        <mxCell id="N3tVkwFhNo7vR2RabhJe-39" value="" style="rounded=0;whiteSpace=wrap;html=1;fillColor=#FDF7FF;" parent="1" vertex="1">
          <mxGeometry x="1115" y="-60" width="320" height="190" as="geometry" />
        </mxCell>
        <mxCell id="N3tVkwFhNo7vR2RabhJe-40" value="PriceController" style="rounded=0;whiteSpace=wrap;html=1;" parent="1" vertex="1">
          <mxGeometry x="1215" width="120" height="60" as="geometry" />
        </mxCell>
        <mxCell id="N3tVkwFhNo7vR2RabhJe-41" value="MasterVault" style="rounded=0;whiteSpace=wrap;html=1;" parent="1" vertex="1">
          <mxGeometry x="789.91" y="835" width="120" height="60" as="geometry" />
        </mxCell>
        <mxCell id="N3tVkwFhNo7vR2RabhJe-42" value="DCol" style="rounded=0;whiteSpace=wrap;html=1;" parent="1" vertex="1">
          <mxGeometry x="789.91" y="1000" width="120" height="60" as="geometry" />
        </mxCell>
        <mxCell id="N3tVkwFhNo7vR2RabhJe-49" style="edgeStyle=orthogonalEdgeStyle;rounded=0;orthogonalLoop=1;jettySize=auto;html=1;exitX=0.5;exitY=0;exitDx=0;exitDy=0;entryX=0.5;entryY=1;entryDx=0;entryDy=0;" parent="1" source="N3tVkwFhNo7vR2RabhJe-43" target="N3tVkwFhNo7vR2RabhJe-42" edge="1">
          <mxGeometry relative="1" as="geometry" />
        </mxCell>
        <mxCell id="N3tVkwFhNo7vR2RabhJe-43" value="Provider" style="rounded=0;whiteSpace=wrap;html=1;" parent="1" vertex="1">
          <mxGeometry x="789.91" y="1160" width="120" height="60" as="geometry" />
        </mxCell>
        <mxCell id="N3tVkwFhNo7vR2RabhJe-50" style="edgeStyle=orthogonalEdgeStyle;rounded=0;orthogonalLoop=1;jettySize=auto;html=1;exitX=0;exitY=0.5;exitDx=0;exitDy=0;entryX=1;entryY=0;entryDx=0;entryDy=0;" parent="1" source="N3tVkwFhNo7vR2RabhJe-44" target="N3tVkwFhNo7vR2RabhJe-1" edge="1">
          <mxGeometry relative="1" as="geometry">
            <Array as="points">
              <mxPoint x="790" y="560" />
              <mxPoint x="660" y="560" />
              <mxPoint x="660" y="40" />
            </Array>
          </mxGeometry>
        </mxCell>
        <mxCell id="N3tVkwFhNo7vR2RabhJe-44" value="GemJoin" style="rounded=0;whiteSpace=wrap;html=1;" parent="1" vertex="1">
          <mxGeometry x="789.91" y="510" width="120" height="60" as="geometry" />
        </mxCell>
        <mxCell id="N3tVkwFhNo7vR2RabhJe-51" style="edgeStyle=orthogonalEdgeStyle;rounded=0;orthogonalLoop=1;jettySize=auto;html=1;exitX=0;exitY=0.25;exitDx=0;exitDy=0;entryX=1;entryY=0.25;entryDx=0;entryDy=0;" parent="1" source="N3tVkwFhNo7vR2RabhJe-45" target="N3tVkwFhNo7vR2RabhJe-1" edge="1">
          <mxGeometry relative="1" as="geometry">
            <Array as="points">
              <mxPoint x="650" y="695" />
              <mxPoint x="650" y="55" />
            </Array>
          </mxGeometry>
        </mxCell>
        <mxCell id="N3tVkwFhNo7vR2RabhJe-53" style="edgeStyle=orthogonalEdgeStyle;rounded=0;orthogonalLoop=1;jettySize=auto;html=1;exitX=0;exitY=0.5;exitDx=0;exitDy=0;entryX=1;entryY=0.5;entryDx=0;entryDy=0;" parent="1" source="N3tVkwFhNo7vR2RabhJe-45" target="N3tVkwFhNo7vR2RabhJe-7" edge="1">
          <mxGeometry relative="1" as="geometry">
            <Array as="points">
              <mxPoint x="610" y="710" />
              <mxPoint x="610" y="870" />
            </Array>
          </mxGeometry>
        </mxCell>
        <mxCell id="N3tVkwFhNo7vR2RabhJe-45" value="Jail" style="rounded=0;whiteSpace=wrap;html=1;" parent="1" vertex="1">
          <mxGeometry x="789.91" y="680" width="120" height="60" as="geometry" />
        </mxCell>
        <mxCell id="N3tVkwFhNo7vR2RabhJe-48" style="edgeStyle=orthogonalEdgeStyle;rounded=0;orthogonalLoop=1;jettySize=auto;html=1;entryX=0;entryY=0.5;entryDx=0;entryDy=0;" parent="1" target="N3tVkwFhNo7vR2RabhJe-41" edge="1">
          <mxGeometry relative="1" as="geometry">
            <mxPoint x="790" y="1195" as="sourcePoint" />
            <mxPoint x="790" y="855" as="targetPoint" />
            <Array as="points">
              <mxPoint x="760" y="1195" />
              <mxPoint x="760" y="865" />
            </Array>
          </mxGeometry>
        </mxCell>
        <mxCell id="N3tVkwFhNo7vR2RabhJe-62" value="" style="rounded=0;whiteSpace=wrap;html=1;fillColor=#F3FFEF;" parent="1" vertex="1">
          <mxGeometry x="1115" y="410" width="320" height="420" as="geometry" />
        </mxCell>
        <mxCell id="N3tVkwFhNo7vR2RabhJe-63" value="" style="rounded=0;whiteSpace=wrap;html=1;fillColor=#FFF9F9;" parent="1" vertex="1">
          <mxGeometry x="1115" y="900" width="320" height="420" as="geometry" />
        </mxCell>
        <mxCell id="N3tVkwFhNo7vR2RabhJe-90" style="edgeStyle=orthogonalEdgeStyle;rounded=0;orthogonalLoop=1;jettySize=auto;html=1;exitX=1;exitY=0.75;exitDx=0;exitDy=0;entryX=1;entryY=0.5;entryDx=0;entryDy=0;" parent="1" source="N3tVkwFhNo7vR2RabhJe-64" target="N3tVkwFhNo7vR2RabhJe-74" edge="1">
          <mxGeometry relative="1" as="geometry">
            <Array as="points">
              <mxPoint x="1480" y="635" />
              <mxPoint x="1480" y="-130" />
            </Array>
          </mxGeometry>
        </mxCell>
        <mxCell id="N3tVkwFhNo7vR2RabhJe-94" style="edgeStyle=orthogonalEdgeStyle;rounded=0;orthogonalLoop=1;jettySize=auto;html=1;exitX=0;exitY=0.5;exitDx=0;exitDy=0;entryX=1;entryY=0.5;entryDx=0;entryDy=0;" parent="1" source="N3tVkwFhNo7vR2RabhJe-64" target="N3tVkwFhNo7vR2RabhJe-41" edge="1">
          <mxGeometry relative="1" as="geometry">
            <Array as="points">
              <mxPoint x="1090" y="620" />
              <mxPoint x="1090" y="865" />
            </Array>
          </mxGeometry>
        </mxCell>
        <mxCell id="N3tVkwFhNo7vR2RabhJe-64" value="YieldModule" style="rounded=0;whiteSpace=wrap;html=1;" parent="1" vertex="1">
          <mxGeometry x="1215" y="590" width="120" height="60" as="geometry" />
        </mxCell>
        <mxCell id="N3tVkwFhNo7vR2RabhJe-92" style="edgeStyle=orthogonalEdgeStyle;rounded=0;orthogonalLoop=1;jettySize=auto;html=1;exitX=0.5;exitY=0;exitDx=0;exitDy=0;entryX=0.5;entryY=1;entryDx=0;entryDy=0;" parent="1" source="N3tVkwFhNo7vR2RabhJe-73" target="N3tVkwFhNo7vR2RabhJe-64" edge="1">
          <mxGeometry relative="1" as="geometry" />
        </mxCell>
        <mxCell id="N3tVkwFhNo7vR2RabhJe-73" value="SwapBurn" style="rounded=0;whiteSpace=wrap;html=1;" parent="1" vertex="1">
          <mxGeometry x="1215" y="1080" width="120" height="60" as="geometry" />
        </mxCell>
        <mxCell id="N3tVkwFhNo7vR2RabhJe-74" value="" style="rounded=0;whiteSpace=wrap;html=1;fillColor=#E6E6E6;" parent="1" vertex="1">
          <mxGeometry x="260" y="-170" width="1175" height="80" as="geometry" />
        </mxCell>
        <mxCell id="N3tVkwFhNo7vR2RabhJe-75" value="Licensor" style="rounded=0;whiteSpace=wrap;html=1;" parent="1" vertex="1">
          <mxGeometry x="787.5" y="-160" width="120" height="60" as="geometry" />
        </mxCell>
        <mxCell id="N3tVkwFhNo7vR2RabhJe-77" value="Reads" style="text;html=1;align=center;verticalAlign=middle;whiteSpace=wrap;rounded=0;" parent="1" vertex="1">
          <mxGeometry x="610" y="1160" width="60" height="30" as="geometry" />
        </mxCell>
        <mxCell id="N3tVkwFhNo7vR2RabhJe-78" value="Oracle" style="rounded=0;whiteSpace=wrap;html=1;" parent="1" vertex="1">
          <mxGeometry x="1215" y="235" width="120" height="60" as="geometry" />
        </mxCell>
        <mxCell id="N3tVkwFhNo7vR2RabhJe-80" value="Reads" style="text;html=1;align=center;verticalAlign=middle;whiteSpace=wrap;rounded=0;" parent="1" vertex="1">
          <mxGeometry x="850" y="140" width="60" height="30" as="geometry" />
        </mxCell>
        <mxCell id="N3tVkwFhNo7vR2RabhJe-83" value="Reads" style="text;html=1;align=center;verticalAlign=middle;whiteSpace=wrap;rounded=0;" parent="1" vertex="1">
          <mxGeometry x="1375" width="60" height="30" as="geometry" />
        </mxCell>
        <mxCell id="N3tVkwFhNo7vR2RabhJe-86" value="Reads" style="text;html=1;align=center;verticalAlign=middle;whiteSpace=wrap;rounded=0;" parent="1" vertex="1">
          <mxGeometry x="1275" y="320" width="60" height="30" as="geometry" />
        </mxCell>
        <mxCell id="N3tVkwFhNo7vR2RabhJe-88" value="Reads" style="text;html=1;align=center;verticalAlign=middle;whiteSpace=wrap;rounded=0;" parent="1" vertex="1">
          <mxGeometry x="1275" y="80" width="60" height="30" as="geometry" />
        </mxCell>
        <mxCell id="N3tVkwFhNo7vR2RabhJe-95" value="Core" style="text;html=1;align=center;verticalAlign=middle;whiteSpace=wrap;rounded=0;" parent="1" vertex="1">
          <mxGeometry x="260" y="-60" width="60" height="30" as="geometry" />
        </mxCell>
        <mxCell id="N3tVkwFhNo7vR2RabhJe-96" value="Entry" style="text;html=1;align=center;verticalAlign=middle;whiteSpace=wrap;rounded=0;" parent="1" vertex="1">
          <mxGeometry x="689.9100000000001" y="-60" width="60" height="30" as="geometry" />
        </mxCell>
        <mxCell id="N3tVkwFhNo7vR2RabhJe-97" value="Collateral" style="text;html=1;align=center;verticalAlign=middle;whiteSpace=wrap;rounded=0;" parent="1" vertex="1">
          <mxGeometry x="700" y="410" width="60" height="30" as="geometry" />
        </mxCell>
        <mxCell id="N3tVkwFhNo7vR2RabhJe-98" value="Module" style="text;html=1;align=center;verticalAlign=middle;whiteSpace=wrap;rounded=0;" parent="1" vertex="1">
          <mxGeometry x="1120" y="410" width="60" height="30" as="geometry" />
        </mxCell>
        <mxCell id="N3tVkwFhNo7vR2RabhJe-99" value="Plugin" style="text;html=1;align=center;verticalAlign=middle;whiteSpace=wrap;rounded=0;" parent="1" vertex="1">
          <mxGeometry x="1120" y="900" width="60" height="30" as="geometry" />
        </mxCell>
        <mxCell id="N3tVkwFhNo7vR2RabhJe-100" value="RatioFeed" style="text;html=1;align=center;verticalAlign=middle;whiteSpace=wrap;rounded=0;" parent="1" vertex="1">
          <mxGeometry x="1130" y="-60" width="60" height="30" as="geometry" />
        </mxCell>
        <mxCell id="N3tVkwFhNo7vR2RabhJe-101" value="PriceFeed" style="text;html=1;align=center;verticalAlign=middle;whiteSpace=wrap;rounded=0;" parent="1" vertex="1">
          <mxGeometry x="1125" y="170" width="60" height="30" as="geometry" />
        </mxCell>
        <mxCell id="N3tVkwFhNo7vR2RabhJe-102" value="Royalty" style="text;html=1;align=center;verticalAlign=middle;whiteSpace=wrap;rounded=0;" parent="1" vertex="1">
          <mxGeometry x="260.00000000000006" y="-170" width="60" height="30" as="geometry" />
        </mxCell>
        <mxCell id="N3tVkwFhNo7vR2RabhJe-111" value="" style="endArrow=none;dashed=1;html=1;dashPattern=1 3;strokeWidth=2;rounded=0;entryX=0;entryY=1;entryDx=0;entryDy=0;" parent="1" target="N3tVkwFhNo7vR2RabhJe-45" edge="1">
          <mxGeometry width="50" height="50" relative="1" as="geometry">
            <mxPoint x="530" y="1190" as="sourcePoint" />
            <mxPoint x="650" y="1000" as="targetPoint" />
            <Array as="points">
              <mxPoint x="670" y="1190" />
              <mxPoint x="670" y="740" />
            </Array>
          </mxGeometry>
        </mxCell>
        <mxCell id="N3tVkwFhNo7vR2RabhJe-112" value="" style="endArrow=classic;html=1;rounded=0;entryX=1;entryY=0.5;entryDx=0;entryDy=0;" parent="1" target="N3tVkwFhNo7vR2RabhJe-8" edge="1">
          <mxGeometry width="50" height="50" relative="1" as="geometry">
            <mxPoint x="530" y="1190" as="sourcePoint" />
            <mxPoint x="220" y="1170" as="targetPoint" />
          </mxGeometry>
        </mxCell>
        <mxCell id="N3tVkwFhNo7vR2RabhJe-113" value="" style="endArrow=none;dashed=1;html=1;dashPattern=1 3;strokeWidth=2;rounded=0;exitX=1;exitY=0.5;exitDx=0;exitDy=0;" parent="1" source="N3tVkwFhNo7vR2RabhJe-2" edge="1">
          <mxGeometry width="50" height="50" relative="1" as="geometry">
            <mxPoint x="100" y="350" as="sourcePoint" />
            <mxPoint x="1275" y="320" as="targetPoint" />
            <Array as="points">
              <mxPoint x="600" y="230" />
              <mxPoint x="600" y="380" />
              <mxPoint x="1275" y="380" />
            </Array>
          </mxGeometry>
        </mxCell>
        <mxCell id="N3tVkwFhNo7vR2RabhJe-114" value="" style="endArrow=classic;html=1;rounded=0;" parent="1" edge="1">
          <mxGeometry width="50" height="50" relative="1" as="geometry">
            <mxPoint x="1275" y="325" as="sourcePoint" />
            <mxPoint x="1275" y="295" as="targetPoint" />
          </mxGeometry>
        </mxCell>
        <mxCell id="N3tVkwFhNo7vR2RabhJe-115" value="" style="endArrow=none;dashed=1;html=1;dashPattern=1 3;strokeWidth=2;rounded=0;exitX=0.5;exitY=1;exitDx=0;exitDy=0;" parent="1" source="N3tVkwFhNo7vR2RabhJe-21" edge="1">
          <mxGeometry width="50" height="50" relative="1" as="geometry">
            <mxPoint x="1070" y="200" as="sourcePoint" />
            <mxPoint x="850" y="160" as="targetPoint" />
          </mxGeometry>
        </mxCell>
        <mxCell id="N3tVkwFhNo7vR2RabhJe-116" value="" style="endArrow=none;dashed=1;html=1;dashPattern=1 3;strokeWidth=2;rounded=0;exitX=0.5;exitY=0;exitDx=0;exitDy=0;" parent="1" source="N3tVkwFhNo7vR2RabhJe-78" edge="1">
          <mxGeometry width="50" height="50" relative="1" as="geometry">
            <mxPoint x="1520" y="200" as="sourcePoint" />
            <mxPoint x="1275" y="110" as="targetPoint" />
          </mxGeometry>
        </mxCell>
        <mxCell id="N3tVkwFhNo7vR2RabhJe-117" value="" style="endArrow=none;dashed=1;html=1;dashPattern=1 3;strokeWidth=2;rounded=0;exitX=1;exitY=0.5;exitDx=0;exitDy=0;" parent="1" source="N3tVkwFhNo7vR2RabhJe-64" edge="1">
          <mxGeometry width="50" height="50" relative="1" as="geometry">
            <mxPoint x="1510" y="450" as="sourcePoint" />
            <mxPoint x="1370" y="30" as="targetPoint" />
            <Array as="points">
              <mxPoint x="1460" y="620" />
              <mxPoint x="1460" y="30" />
            </Array>
          </mxGeometry>
        </mxCell>
        <mxCell id="N3tVkwFhNo7vR2RabhJe-118" value="" style="endArrow=classic;html=1;rounded=0;entryX=1;entryY=0.5;entryDx=0;entryDy=0;" parent="1" edge="1">
          <mxGeometry width="50" height="50" relative="1" as="geometry">
            <mxPoint x="1375" y="29.88" as="sourcePoint" />
            <mxPoint x="1335" y="29.579999999999988" as="targetPoint" />
          </mxGeometry>
        </mxCell>
        <mxCell id="N3tVkwFhNo7vR2RabhJe-120" value="" style="endArrow=classic;html=1;rounded=0;entryX=0.5;entryY=1;entryDx=0;entryDy=0;" parent="1" edge="1">
          <mxGeometry width="50" height="50" relative="1" as="geometry">
            <mxPoint x="1275" y="110" as="sourcePoint" />
            <mxPoint x="1274.9999999999998" y="60" as="targetPoint" />
          </mxGeometry>
        </mxCell>
      </root>
    </mxGraphModel>
  </diagram>
</mxfile>
